<?xml version="1.0" encoding="UTF-8" standalone="no"?>
<!-- Created with Inkscape (http://www.inkscape.org/) -->

<svg
   width="420mm"
   height="594mm"
   viewBox="0 0 420 594"
   version="1.1"
   id="svg5"
   inkscape:version="1.2 (dc2aedaf03, 2022-05-15)"
   sodipodi:docname="platform_template_01.svg"
   xml:space="preserve"
   xmlns:inkscape="http://www.inkscape.org/namespaces/inkscape"
   xmlns:sodipodi="http://sodipodi.sourceforge.net/DTD/sodipodi-0.dtd"
   xmlns="http://www.w3.org/2000/svg"
   xmlns:svg="http://www.w3.org/2000/svg"><sodipodi:namedview
     id="namedview7"
     pagecolor="#ffffff"
     bordercolor="#000000"
     borderopacity="0.25"
     inkscape:showpageshadow="2"
     inkscape:pageopacity="0.0"
     inkscape:pagecheckerboard="0"
     inkscape:deskcolor="#d1d1d1"
     inkscape:document-units="mm"
     showgrid="false"
     inkscape:zoom="0.52221046"
     inkscape:cx="692.24963"
     inkscape:cy="811.93318"
     inkscape:window-width="1920"
     inkscape:window-height="1009"
     inkscape:window-x="1432"
     inkscape:window-y="723"
     inkscape:window-maximized="1"
     inkscape:current-layer="svg5" /><defs
     id="defs2"><rect
       x="585.97064"
       y="601.29014"
       width="122.55595"
       height="84.257217"
       id="rect3823" /><rect
       x="585.97064"
       y="601.29014"
       width="106.27899"
       height="30.160253"
       id="rect3831" /><rect
       x="585.97064"
       y="601.29014"
       width="106.27899"
       height="30.160253"
       id="rect3941" /><rect
       x="585.97064"
       y="601.29014"
       width="106.27899"
       height="30.160253"
       id="rect4001" /><rect
       x="585.97064"
       y="601.29014"
       width="106.27899"
       height="30.160253"
       id="rect4061" /><rect
       x="585.97064"
       y="601.29014"
       width="122.55595"
       height="84.257217"
       id="rect4067" /><rect
       x="585.97064"
       y="601.29014"
       width="122.55595"
       height="84.257217"
       id="rect4073" /><rect
       x="585.97064"
       y="601.29014"
       width="122.55595"
       height="84.257217"
       id="rect4079" /><rect
       x="585.97064"
       y="601.29014"
       width="122.55595"
       height="84.257217"
       id="rect4085" /></defs><g
     inkscape:label="Layer 1"
     inkscape:groupmode="layer"
     id="layer1"><circle
       style="fill:none;stroke:#000000;stroke-width:1"
       id="path1465"
       cx="210"
       cy="214"
       r="195" /><path
       style="fill:none;stroke:#000000;stroke-width:0.972721"
       d="M 210,14 V 414"
       id="path3131" /><path
       style="fill:none;stroke:#000000;stroke-width:0.97272"
       d="M 410,214 H 9.9999981"
       id="path3133" /><g
       id="g3044"
       transform="matrix(0.04097877,0,0,0.0409389,308.10214,84.157918)"><rect
         id="rect3208"
         height="897.29999"
         width="897.29999"
         y="1.7889"
         x="1.3513"
         fill="#ffffff" /><path
         id="rect3002"
         d="M 0.5312,0 0,900.88 H 900 V 0.88 L 0.53,0 Z m 791.72,30.938 h 22.906 v 54.219 h 54.25 v 21.938 h -54.25 v 54.219 h -22.906 v -54.219 h -54.25 V 85.157 h 54.25 z m -758.84,0.812 143.75,38.594 -105.69,106.69 -38.064,-145.28 z m 416.03,13.719 -344.78,616.22 h 690.69 l -343.44,-616.19 c 223.02,1.0254 403.5,182.11 403.5,405.38 0,223.9 -181.51,405.4 -405.41,405.4 -223.9,0 -404.88,-182.38 -404.88,-406.28 0.005,-223.72 180.67,-404.23 404.32,-404.53 z m 1.1562,174.12 205.06,361.47 -415.31,2 z m -12.531,165.47 v 53.688 h -53.688 v 22.781 h 53.688 v 53.688 h 22.781 v -53.688 h 53.688 v -22.781 h -53.688 v -53.688 z m -351.28,355.62 h 22.906 v 54.25 h 54.25 v 21.906 h -54.25 v 54.25 h -22.906 v -54.25 h -53.25 v -21.906 h 53.25 z m 751.25,12.094 31.031,116.19 -116.78,-30.812 85.75,-85.375 z" /></g><g
       id="g3210"
       transform="matrix(0.05918049,0,0,0.05918049,78.585007,81.624969)"><rect
         id="rect3208-5"
         height="664"
         width="664"
         y="1"
         x="1"
         fill="#ffffff" /><path
         id="rect3002-3"
         d="M 0,0 V 666 H 666 V 0 Z m 589.22,11.875 h 14 v 50.5 h 50.5 v 14 h -50.5 v 50.5 h -14 v -50.5 h -50.5 v -14 h 50.5 z m -566.44,7.2188 110.59,33.625 -85,79.406 z m 309.81,13.906 -255.15,456 H 588.56 L 334.41,33.0298 c 165.03,0.76 298.59,134.75 298.59,299.97 0,165.69 -134.31,300 -300,300 -165.69,0 -300,-134.31 -300,-300 0,-165.55 134.09,-299.78 299.59,-300 z m 0.84375,29.688 111.38,199.78 h -223.16 z m 112.79,202.34 115.94,207.97 h -227.85 z m -226.22,0.35 112.16,207.62 h -228.31 z m 40.562,19.938 h 144.91 l -72.312,139.91 z m 67.594,7.6875 v 35.125 h -35.156 v 9.75 h 35.156 v 35.125 h 9.7188 v -35.125 h 35.125 v -9.75 h -35.125 v -35.125 z m 290.63,237.18 25.6,113.03 -110.63,-33.6 z m -553.09,7.6562 h 14 v 50.5 h 50.5 v 14 h -50.5 v 50.5 h -14 v -50.5 h -50.5 v -14 h 50.5 z" /></g><g
       fill="#231f20"
       id="g4386"
       transform="matrix(0.26458333,0,0,0.26458333,79.24039,309.95911)">
	<path
   d="m 128.53,9.589 c -7.713,0 -14.106,5.678 -15.266,13.068 H 74.606 V 4.807 h 40.858 V 0 H 28.941 v 4.807 h 40.858 v 17.85 H 30.684 C 29.374,15.445 23.059,9.956 15.475,9.956 c -8.531,0 -15.471,6.94 -15.471,15.471 0,8.53 6.94,15.471 15.471,15.471 7.839,0 14.318,-5.865 15.321,-13.434 H 69.799 V 43.827 H 28.941 v 4.807 H 68.04 l -9.387,16.26 H 40.627 c -1.115,-5.43 -5.931,-9.526 -11.686,-9.526 -6.578,0 -11.931,5.352 -11.931,11.929 0,6.577 5.353,11.931 11.931,11.931 5.755,0 10.571,-4.098 11.686,-9.527 h 15.25 L 16.004,138.76 h 112.4 L 88.527,69.7 h 15.251 c 1.115,5.429 5.932,9.527 11.688,9.527 6.577,0 11.929,-5.354 11.929,-11.931 0,-6.577 -5.352,-11.929 -11.929,-11.929 -5.757,0 -10.573,4.096 -11.688,9.526 H 85.756 l -9.387,-16.26 h 39.099 V 43.826 H 74.61 V 27.464 h 38.662 c 1.16,7.39 7.553,13.067 15.266,13.067 8.53,0 15.471,-6.94 15.471,-15.472 0,-8.53 -6.94,-15.47 -15.47,-15.47 z M 15.47,36.091 c -5.88,0 -10.664,-4.784 -10.664,-10.664 0,-5.88 4.784,-10.665 10.664,-10.665 5.88,0 10.664,4.784 10.664,10.665 0,5.88 -4.783,10.664 -10.664,10.664 z M 28.936,74.42 c -3.928,0 -7.124,-3.196 -7.124,-7.125 0,-3.927 3.195,-7.122 7.124,-7.122 3.083,0 5.708,1.973 6.696,4.719 H 28.936 V 69.7 h 6.696 c -0.989,2.747 -3.613,4.72 -6.696,4.72 z m 86.523,-14.246 c 3.927,0 7.122,3.195 7.122,7.122 0,3.928 -3.195,7.125 -7.122,7.125 -3.083,0 -5.709,-1.974 -6.698,-4.72 h 6.696 v -4.807 h -6.696 c 0.99,-2.748 3.62,-4.72 6.7,-4.72 z M 69.794,55.2 v 9.693 H 64.197 Z M 51.44,89.206 59.246,97.01 c -1.98,2.676 -3.167,5.974 -3.167,9.551 0,3.579 1.187,6.877 3.167,9.553 l -7.806,7.806 c -3.939,-4.703 -6.316,-10.757 -6.316,-17.356 0,-6.599 2.377,-12.653 6.316,-17.354 z m 32.067,17.354 c 0,2.25 -0.668,4.344 -1.805,6.106 l -6.106,-6.104 6.107,-6.107 c 1.136,1.76 1.804,3.85 1.804,6.1 z m -5.203,9.51 c -1.765,1.138 -3.856,1.805 -6.106,1.805 -2.25,0 -4.343,-0.667 -6.106,-1.805 l 6.106,-6.105 6.106,6.09 z M 72.197,103.16 66.09,97.053 c 1.764,-1.139 3.857,-1.805 6.107,-1.805 2.25,0 4.344,0.666 6.107,1.805 z m -3.398,3.4 -6.106,6.104 c -1.137,-1.763 -1.806,-3.856 -1.806,-6.106 0,-2.249 0.667,-4.343 1.805,-6.105 l 6.107,6.12 z m -6.154,12.95 c 2.677,1.98 5.975,3.166 9.553,3.166 3.577,0 6.875,-1.186 9.552,-3.166 l 7.808,7.809 c -4.704,3.938 -10.757,6.316 -17.357,6.316 -6.603,0 -12.657,-2.378 -17.36,-6.318 l 7.804,-7.81 z m 30.309,4.41 -7.807,-7.806 c 1.979,-2.676 3.166,-5.974 3.166,-9.553 0,-3.577 -1.187,-6.875 -3.165,-9.551 l 7.806,-7.807 c 3.939,4.704 6.317,10.757 6.317,17.359 0,6.6 -2.377,12.66 -6.317,17.36 z M 81.75,93.611 c -2.677,-1.981 -5.976,-3.166 -9.553,-3.166 -3.578,0 -6.876,1.185 -9.553,3.166 l -7.805,-7.805 c 4.704,-3.94 10.758,-6.318 17.36,-6.318 6.6,0 12.653,2.378 17.357,6.316 z M 40.326,106.24 c -10e-4,0.107 -0.008,0.213 -0.008,0.321 0,11.632 6.266,21.826 15.598,27.394 H 24.325 l 16.001,-27.71 z m 48.155,27.72 c 9.331,-5.567 15.597,-15.762 15.597,-27.394 0,-0.108 -0.007,-0.214 -0.008,-0.319 l 16,27.713 H 88.482 Z M 88.417,79.129 C 83.662,76.308 78.118,74.681 72.2,74.681 c -5.922,0 -11.467,1.627 -16.223,4.45 L 61.422,69.7 H 82.973 Z M 74.601,64.893 V 55.2 l 5.597,9.693 z m 53.928,-29.168 c -5.881,0 -10.666,-4.784 -10.666,-10.665 0,-5.88 4.785,-10.664 10.666,-10.664 5.881,0 10.664,4.784 10.664,10.664 0,5.88 -4.78,10.665 -10.66,10.665 z"
   id="path4380" />
	<path
   d="m 15.471,21.128 c -2.168,0 -3.932,1.764 -3.932,3.931 0,2.168 1.764,3.932 3.932,3.932 2.168,0 3.933,-1.764 3.933,-3.932 0,-2.167 -1.764,-3.931 -3.933,-3.931 z m 0,4.807 c -0.482,0 -0.875,-0.393 -0.875,-0.875 0,-0.482 0.392,-0.875 0.875,-0.875 0.483,0 0.875,0.393 0.875,0.875 0.001,0.482 -0.391,0.875 -0.875,0.875 z"
   id="path4382" />
	<path
   d="m 128.53,21.128 c -2.168,0 -3.932,1.764 -3.932,3.931 0,2.168 1.764,3.933 3.932,3.933 2.167,0 3.931,-1.765 3.931,-3.933 0,-2.167 -1.76,-3.931 -3.93,-3.931 z m 0,4.807 c -0.482,0 -0.876,-0.393 -0.876,-0.875 0,-0.482 0.394,-0.874 0.876,-0.874 0.482,0 0.875,0.392 0.875,0.874 0,0.482 -0.39,0.875 -0.87,0.875 z"
   id="path4384" />
</g></g><g
     id="g3713"
     transform="matrix(0.05,0,0,0.05,175,179)"
     inkscape:label="cctag_0"><circle
       cx="700"
       cy="700"
       fill="#000000"
       r="500"
       id="circle3685" /><circle
       cx="700"
       cy="700"
       fill="#ffffff"
       r="450"
       id="circle3687" /><circle
       cx="700"
       cy="700"
       fill="#000000"
       r="400"
       id="circle3689" /><circle
       cx="700"
       cy="700"
       fill="#ffffff"
       r="350"
       id="circle3691" /><circle
       cx="700"
       cy="700"
       fill="#000000"
       r="300"
       id="circle3693" /><circle
       cx="700"
       cy="700"
       fill="#ffffff"
       r="250"
       id="circle3695" /><line
       stroke="#808080"
       x1="690"
       x2="710"
       y1="700"
       y2="700"
       id="line3697" /><line
       stroke="#808080"
       x1="700"
       x2="700"
       y1="690"
       y2="710"
       id="line3699" /></g><g
     id="g3767"
     transform="matrix(0.05,0,0,0.05,340,179)"
     inkscape:label="cctag_1"><circle
       cx="700"
       cy="700"
       fill="#000000"
       r="500"
       id="circle3739" /><circle
       cx="700"
       cy="700"
       fill="#ffffff"
       r="450"
       id="circle3741" /><circle
       cx="700"
       cy="700"
       fill="#000000"
       r="400"
       id="circle3743" /><circle
       cx="700"
       cy="700"
       fill="#ffffff"
       r="350"
       id="circle3745" /><circle
       cx="700"
       cy="700"
       fill="#000000"
       r="300"
       id="circle3747" /><circle
       cx="700"
       cy="700"
       fill="#ffffff"
       r="225"
       id="circle3749" /><line
       stroke="#808080"
       x1="690"
       x2="710"
       y1="700"
       y2="700"
       id="line3751" /><line
       stroke="#808080"
       x1="700"
       x2="700"
       y1="690"
       y2="710"
       id="line3753" /></g><g
     id="g3935"
     transform="matrix(0.05,0,0,0.05,175,14)"
     inkscape:label="cctag_2"><circle
       cx="700"
       cy="700"
       fill="#000000"
       r="500"
       id="circle3907" /><circle
       cx="700"
       cy="700"
       fill="#ffffff"
       r="450"
       id="circle3909" /><circle
       cx="700"
       cy="700"
       fill="#000000"
       r="400"
       id="circle3911" /><circle
       cx="700"
       cy="700"
       fill="#ffffff"
       r="350"
       id="circle3913" /><circle
       cx="700"
       cy="700"
       fill="#000000"
       r="275"
       id="circle3915" /><circle
       cx="700"
       cy="700"
       fill="#ffffff"
       r="225"
       id="circle3917" /><line
       stroke="#808080"
       x1="690"
       x2="710"
       y1="700"
       y2="700"
       id="line3919" /><line
       stroke="#808080"
       x1="700"
       x2="700"
       y1="690"
       y2="710"
       id="line3921" /></g><g
     id="g3995"
     transform="matrix(0.05,0,0,0.05,10,179)"
     inkscape:label="cctag_3"><circle
       cx="700"
       cy="700"
       fill="#000000"
       r="500"
       id="circle3967" /><circle
       cx="700"
       cy="700"
       fill="#ffffff"
       r="450"
       id="circle3969" /><circle
       cx="700"
       cy="700"
       fill="#000000"
       r="400"
       id="circle3971" /><circle
       cx="700"
       cy="700"
       fill="#ffffff"
       r="350"
       id="circle3973" /><circle
       cx="700"
       cy="700"
       fill="#000000"
       r="275"
       id="circle3975" /><circle
       cx="700"
       cy="700"
       fill="#ffffff"
       r="200"
       id="circle3977" /><line
       stroke="#808080"
       x1="690"
       x2="710"
       y1="700"
       y2="700"
       id="line3979" /><line
       stroke="#808080"
       x1="700"
       x2="700"
       y1="690"
       y2="710"
       id="line3981" /></g><g
     id="g4055"
     transform="matrix(0.05,0,0,0.05,175,344.00001)"
     inkscape:label="cctag_4"><circle
       cx="700"
       cy="700"
       fill="#000000"
       r="500"
       id="circle4027" /><circle
       cx="700"
       cy="700"
       fill="#ffffff"
       r="450"
       id="circle4029" /><circle
       cx="700"
       cy="700"
       fill="#000000"
       r="400"
       id="circle4031" /><circle
       cx="700"
       cy="700"
       fill="#ffffff"
       r="325"
       id="circle4033" /><circle
       cx="700"
       cy="700"
       fill="#000000"
       r="275"
       id="circle4035" /><circle
       cx="700"
       cy="700"
       fill="#ffffff"
       r="225"
       id="circle4037" /><line
       stroke="#808080"
       x1="690"
       x2="710"
       y1="700"
       y2="700"
       id="line4039" /><line
       stroke="#808080"
       x1="700"
       x2="700"
       y1="690"
       y2="710"
       id="line4041" /></g><text
     xml:space="preserve"
     transform="matrix(0.26458333,0,0,0.26458333,19.253094,22.293055)"
     id="text3821"
     style="font-size:26.6667px;text-align:center;white-space:pre;shape-inside:url(#rect3823);display:inline;fill:none;stroke:#000000;stroke-width:3.77953"><tspan
       x="639.62234"
       y="625.55438"
       id="tspan4595">0</tspan></text><text
     xml:space="preserve"
     transform="matrix(0.26458333,0,0,0.26458333,180.75108,20.013084)"
     id="text3829"
     style="font-size:26.6667px;text-align:center;white-space:pre;shape-inside:url(#rect3831);display:inline;fill:none;stroke:#000000;stroke-width:3.77953"><tspan
       x="593.75026"
       y="625.55438"
       id="tspan4597">X: +165</tspan></text><text
     xml:space="preserve"
     transform="matrix(0.26458333,0,0,0.26458333,83.472294,-116.27855)"
     id="text3939"
     style="font-size:26.6667px;text-align:center;white-space:pre;shape-inside:url(#rect3941);display:inline;fill:none;stroke:#000000;stroke-width:3.77953"><tspan
       x="597.27027"
       y="625.55438"
       id="tspan4599">Z: -165</tspan></text><text
     xml:space="preserve"
     transform="matrix(0.26458333,0,0,0.26458333,-91.832187,20.013084)"
     id="text3999"
     style="font-size:26.6667px;text-align:center;white-space:pre;shape-inside:url(#rect4001);display:inline;fill:none;stroke:#000000;stroke-width:3.77953"><tspan
       x="597.0836"
       y="625.55438"
       id="tspan4601">X: -165</tspan></text><text
     xml:space="preserve"
     transform="matrix(0.26458333,0,0,0.26458333,84.485615,215.99346)"
     id="text4059"
     style="font-size:26.6667px;text-align:center;white-space:pre;shape-inside:url(#rect4061);display:inline;fill:none;stroke:#000000;stroke-width:3.77953"><tspan
       x="593.93693"
       y="625.55438"
       id="tspan4603">Z: +165</tspan></text><text
     xml:space="preserve"
     transform="matrix(0.26458333,0,0,0.26458333,219.89059,19.759753)"
     id="text4065"
     style="font-size:26.6667px;text-align:center;white-space:pre;shape-inside:url(#rect4067);display:inline;fill:none;stroke:#000000;stroke-width:3.77953"><tspan
       x="639.62234"
       y="625.55438"
       id="tspan4605">1</tspan></text><text
     xml:space="preserve"
     transform="matrix(0.26458333,0,0,0.26458333,66.733171,-131.42721)"
     id="text4071"
     style="font-size:26.6667px;text-align:center;white-space:pre;shape-inside:url(#rect4073);display:inline;fill:none;stroke:#000000;stroke-width:3.77953"><tspan
       x="639.62234"
       y="625.55438"
       id="tspan4607">2</tspan></text><text
     xml:space="preserve"
     transform="matrix(0.26458333,0,0,0.26458333,66.733171,234.20456)"
     id="text4077"
     style="font-size:26.6667px;text-align:center;white-space:pre;shape-inside:url(#rect4079);display:inline;fill:none;stroke:#000000;stroke-width:3.77953"><tspan
       x="639.62234"
       y="625.55438"
       id="tspan4609">4</tspan></text><text
     xml:space="preserve"
     transform="matrix(0.26458333,0,0,0.26458333,-145.23455,19.759753)"
     id="text4083"
     style="font-size:26.6667px;text-align:center;white-space:pre;shape-inside:url(#rect4085);display:inline;fill:none;stroke:#000000;stroke-width:3.77953"><tspan
       x="639.62234"
       y="625.55438"
       id="tspan4611">3</tspan></text></svg>
